<?xml version="1.0" standalone="no"?>
<!DOCTYPE svg PUBLIC "-//W3C//DTD SVG 20010904//EN"
 "http://www.w3.org/TR/2001/REC-SVG-20010904/DTD/svg10.dtd">
<svg version="1.0" xmlns="http://www.w3.org/2000/svg"
 width="300.000000pt" height="151.000000pt" viewBox="0 0 300.000000 151.000000"
 preserveAspectRatio="xMidYMid meet">
<metadata>
Created by potrace 1.10, written by Peter Selinger 2001-2011
</metadata>
<g transform="translate(0.000000,151.000000) scale(0.100000,-0.100000)"
fill="#000000" stroke="none">
<path d="M2031 996 c-34 -19 -50 -54 -51 -108 0 -41 -3 -48 -20 -48 -17 0 -20
-7 -20 -40 0 -33 3 -40 20 -40 19 0 20 -7 20 -125 l0 -125 40 0 40 0 0 125 0
125 45 0 45 0 0 40 0 40 -46 0 -45 0 3 43 c3 36 6 42 25 42 20 1 73 40 73 55
0 11 -49 30 -78 30 -15 -1 -38 -7 -51 -14z m14 -176 c18 -20 18 -21 -3 -43
-21 -20 -23 -20 -39 -5 -14 14 -15 22 -5 43 14 30 23 31 47 5z"/>
<path d="M760 741 l0 -231 40 0 40 0 0 94 0 94 38 -5 c114 -15 200 72 172 175
-5 21 -24 51 -40 67 -30 29 -35 30 -141 33 l-109 4 0 -231z m202 141 c6 -6 11
-26 11 -43 0 -44 -32 -69 -89 -69 l-44 0 0 68 0 68 55 -6 c30 -3 60 -11 67
-18z m-128 -157 c-3 -7 -12 -16 -20 -19 -10 -4 -14 4 -14 31 0 35 1 36 19 19
11 -10 17 -24 15 -31z"/>
<path d="M1810 939 c-9 -16 -8 -25 6 -40 9 -10 25 -19 35 -19 23 0 42 34 34
60 -9 28 -60 27 -75 -1z"/>
<path d="M2204 935 c-12 -50 41 -75 70 -33 21 30 4 58 -34 58 -23 0 -31 -5
-36 -25z"/>
<path d="M485 834 c-59 -30 -86 -67 -99 -133 -18 -98 66 -201 164 -201 42 0
104 33 129 69 l21 29 -42 10 c-36 9 -45 8 -66 -9 -33 -26 -68 -24 -97 6 -44
43 -35 47 95 44 l120 -4 0 36 c0 114 -130 203 -225 153z m116 -83 c16 -16 29
-33 29 -38 0 -4 -36 -8 -80 -8 -81 0 -92 6 -67 37 35 45 79 48 118 9z m-143
-79 c-5 -27 -28 -26 -28 2 0 19 4 24 15 19 9 -3 15 -12 13 -21z"/>
<path d="M1173 831 c-117 -54 -129 -227 -20 -299 51 -34 133 -38 166 -8 19 17
21 17 21 3 0 -13 9 -17 40 -17 l40 0 0 165 0 165 -39 0 c-35 0 -39 -2 -34 -21
5 -19 4 -19 -32 5 -45 31 -85 32 -142 7z m207 -83 c-1 -31 -1 -32 -15 -14 -19
25 -19 46 0 46 10 0 15 -10 15 -32z m-89 12 c53 -29 61 -121 12 -160 -90 -71
-196 59 -114 141 31 30 67 37 102 19z m89 -165 c0 -24 -5 -35 -14 -35 -24 0
-28 18 -10 45 21 33 24 32 24 -10z"/>
<path d="M1565 835 c-114 -62 -136 -197 -46 -286 60 -60 146 -65 211 -11 l33
28 -36 22 c-35 20 -38 20 -66 4 -41 -23 -80 -8 -104 40 -26 52 -10 102 40 126
32 15 37 15 64 0 28 -16 32 -16 64 0 19 9 35 20 35 24 0 4 -18 20 -40 34 -50
33 -114 41 -155 19z"/>
<path d="M2435 835 c-114 -62 -136 -197 -46 -286 60 -60 146 -65 211 -11 l33
28 -37 22 c-34 20 -39 21 -59 7 -45 -31 -98 -9 -117 50 -25 75 53 152 113 112
22 -14 27 -14 60 1 20 9 36 20 37 24 0 4 -18 20 -40 34 -50 33 -114 41 -155
19z"/>
<path d="M1805 675 l0 -165 43 0 42 0 0 165 0 165 -42 0 -43 0 0 -165z"/>
<path d="M2200 675 l0 -165 40 0 40 0 0 165 0 165 -40 0 -40 0 0 -165z"/>
</g>
</svg>
